<?xml version="1.0" standalone="no"?><svg data-noselect="" 
  viewBox="81.54106528198284 87 516 387.331119995523" 
  width="516" 
  height="387.331119995523" 
  ref="svg_canvas" 
  preserveAspectRatio="none" 
  version="1.1" xmlns="http://www.w3.org/2000/svg" 
  style="background: #ffffff;">
    <defs></defs>
    <g id="shape_a1N99IJpXX" class=""  ref="shape_a1N99IJpXX" key="shape_a1N99IJpXX" transform="translate(193.83967391304347,167) rotate(0,89.34174790584925,113.6655599977615) scale(1,1)" style="cursor:move;display:inline;opacity:1;" filter="">
            <g style="display:inline"><rect fill="rgba(0,0,0,0)" width="198.6834958116985" height="247.331119995523" x="-10" y="-10"></rect><svg version="1.1" id="图层_1" xmlns="http://www.w3.org/2000/svg" xmlns:xlink="http://www.w3.org/1999/xlink" x="0px" y="0px" width="178.6834958116985" height="227.331119995523" viewBox="0 0 115.7 147.2" enable-background="new 0 0 115.7 147.2" xml:space="preserve" class="style-removed" preserveAspectRatio="none" data-parent="shape_a1N99IJpXX">
<g>
	<g>
		<g>
			
				<linearGradient id="SVGID_1__mMNUoBixDs" gradientUnits="userSpaceOnUse" x1="-628.4714" y1="272.2159" x2="-628.4586" y2="272.2159" gradientTransform="matrix(0.9447 -0.328 0.328 0.9447 546.9102 -381.5832)">
				<stop offset="0" stop-color="#72EDF2"></stop>
				<stop offset="1" stop-color="#5151E5"></stop>
			</linearGradient>
			<path fill="url(#SVGID_1__mMNUoBixDs)" d="M42.5,81.7L42.5,81.7L42.5,81.7C42.5,81.7,42.5,81.7,42.5,81.7z" stroke-width="0"></path>
			
				<linearGradient id="SVGID_2__djiIF11fMr" gradientUnits="userSpaceOnUse" x1="-635.2884" y1="306.8062" x2="-633.8054" y2="285.889" gradientTransform="matrix(0.9447 -0.328 0.328 0.9447 546.9102 -381.5832)">
				<stop offset="0" stop-color="#72EDF2"></stop>
				<stop offset="1" stop-color="#5151E5"></stop>
			</linearGradient>
			<path fill="url(#SVGID_2__djiIF11fMr)" d="M39.3,106C39.3,106,39.3,106,39.3,106c-0.5,0.9-0.8,2-0.8,3.1c-0.1,3.5,2.5,6.5,5.9,7
				c3.8,0.6,7.4-2.1,7.8-5.9c0.3-2.2-0.5-4.2-1.9-5.7l0,0c0,0,0,0,0,0c-0.1-0.2-0.3-0.3-0.5-0.4c-1.6-1.5-6.4-7-7.4-15.5
				C42.6,90.2,43,100.7,39.3,106z" stroke-width="0"></path>
		</g>
		<g>
			
				<linearGradient id="SVGID_3__gAnjpJALzx" gradientUnits="userSpaceOnUse" x1="-628.4714" y1="272.2159" x2="-628.4586" y2="272.2159" gradientTransform="matrix(0.9447 -0.328 0.328 0.9447 546.9102 -381.5832)">
				<stop offset="0" stop-color="#72EDF2"></stop>
				<stop offset="1" stop-color="#5151E5"></stop>
			</linearGradient>
			<path fill="url(#SVGID_3__gAnjpJALzx)" d="M42.5,81.7L42.5,81.7L42.5,81.7C42.5,81.7,42.5,81.7,42.5,81.7z" stroke-width="0"></path>
			
				<linearGradient id="SVGID_4__d95s2er3az" gradientUnits="userSpaceOnUse" x1="-667.9573" y1="271.7687" x2="-594.2787" y2="258.8645" gradientTransform="matrix(0.9447 -0.328 0.328 0.9447 546.9102 -381.5832)">
				<stop offset="3.942397e-02" stop-color="#72EDF2"></stop>
				<stop offset="1" stop-color="#5151E5"></stop>
			</linearGradient>
			<path fill="url(#SVGID_4__d95s2er3az)" d="M0.1,76.9c-1,11.1,7.1,21.3,18.2,22.9c5.1,0.7,9.9-0.3,14-2.8c2.6-1.5,6-0.6,7.4,2
				c0,0,0,0.1,0,0.1c1.7,3.4-0.2,6.6-0.3,6.8c3.7-5.3,3.2-15.8,3.1-17.4c-0.3-2.1-0.3-4.4,0-6.9l0,0c0,0,0,0,0,0l0,0
				C46.9,51.2,75.6,53.2,83,54.3c-24-5.6-38.6,2.7-60.2,3.2C11.3,56.6,1.1,65.1,0.1,76.9z" stroke-width="0"></path>
			
				<linearGradient id="SVGID_5__YiJLltUh2G" gradientUnits="userSpaceOnUse" x1="-629.2351" y1="247.9525" x2="-539.114" y2="230.4694" gradientTransform="matrix(0.9447 -0.328 0.328 0.9447 546.9102 -381.5832)">
				<stop offset="0" stop-color="#72EDF2"></stop>
				<stop offset="1" stop-color="#5151E5"></stop>
			</linearGradient>
			<path fill="url(#SVGID_5__YiJLltUh2G)" d="M92.9,0.4C77.5-2.2,63.1,8.5,61.1,23.9c0,0.2,0,0.3,0,0.5c-0.5,3.8-4.8,30.5-38.2,33.1l0,0
				C44.4,57,59.1,48.7,83,54.3c0.6,0.1,1.2,0.2,1.8,0.3c15.4,2,29.4-9.2,30.8-24.7C116.9,15.7,106.9,2.7,92.9,0.4z" stroke-width="0"></path>
		</g>
	</g>
	
		<linearGradient id="SVGID_6__UtcdMUnU6j" gradientUnits="userSpaceOnUse" x1="667.8522" y1="-3191.2024" x2="693.2859" y2="-3191.2024" gradientTransform="matrix(-0.2885 0.9575 -0.9575 -0.2885 -2803.3938 -1437.838)">
		<stop offset="0" stop-color="#72EDF2"></stop>
		<stop offset="1" stop-color="#5151E5"></stop>
	</linearGradient>
	<circle fill="url(#SVGID_6__UtcdMUnU6j)" cx="55.8" cy="134.5" r="12.7" stroke-width="0"></circle>
</g>
</svg></g>
        </g><g id="shape_TWkm28u9Fo" class="brand_name"  ref="shape_TWkm28u9Fo" key="shape_TWkm28u9Fo" transform="translate(213.88245665092222,16.037793948999933) rotate(0,233.1562263206627,274.58) scale(1,1)" style="cursor:move;display:inline;opacity:1;" filter="">
            <g style="display:inline"><svg xmlns="http://www.w3.org/2000/svg" version="1.1" xmlns:xlink="http://www.w3.org/1999/xlink" width="500.44" height="549.16" viewBox="0 0 500.44 549.16" preserveAspectRatio="none" data-parent="shape_TWkm28u9Fo"><rect fill="rgba(0,0,0,0)" width="195" height="91" x="76.36" y="229.07999999999998"></rect><g data-width="194.4048046875" transform="translate(76.36, 0)"><path d="M29.60-56.75L2.98-56.75L2.98 1.72L29.60 1.72Q41.68 1.72 50.26-6.86L50.26-6.86Q58.84-15.44 58.84-27.52L58.84-27.52Q58.84-39.67 50.26-48.25L50.26-48.25Q41.68-56.75 29.60-56.75L29.60-56.75ZM12.08-4.40L12.08-50.71L26.55-50.71Q36.09-50.71 42.88-43.92L42.88-43.92Q49.66-37.14 49.66-27.52L49.66-27.52Q49.66-17.97 42.88-11.19L42.88-11.19Q36.09-4.40 26.55-4.40L26.55-4.40L12.08-4.40Z" transform="translate(0 302.08) " fill="rgb(58, 58, 219)" stroke="rgb(58, 58, 219)" stroke-width="0.127" data-glyph-w="60.3273828125" data-glyph-h="74.5703125" data-glyph-ascender="65.621875" data-glyph-descender="-8.9484375"></path><path d="M45.49 1.72L2.98 1.72L2.98-56.75L45.49-56.75L45.49-51.45L12.08-51.45L12.08-30.20L45.49-30.20L45.49-24.91L12.08-24.91L12.08-3.58L45.49-3.58L45.49 1.72Z" transform="translate(60.3273828125 302.08) " fill="rgb(58, 58, 219)" stroke="rgb(58, 58, 219)" stroke-width="0.127" data-glyph-w="48.470703125" data-glyph-h="74.5703125" data-glyph-ascender="65.621875" data-glyph-descender="-8.9484375"></path><path d="M58.46-42.95L58.46 1.79L67.56 1.79L67.56-56.75L55.41-56.75L35.27-18.34L15.21-56.75L2.98-56.75L2.98 1.79L12.15 1.79L12.15-42.95L31.32-6.26L39.30-6.26L58.46-42.95Z" transform="translate(108.79808593749999 302.08) " fill="rgb(58, 58, 219)" stroke="rgb(58, 58, 219)" stroke-width="0.127" data-glyph-w="70.543515625" data-glyph-h="74.5703125" data-glyph-ascender="65.621875" data-glyph-descender="-8.9484375"></path><path d="M2.98 1.72L2.98-56.75L12.08-56.75L12.08 1.72L2.98 1.72Z" transform="translate(179.3416015625 302.08) " fill="rgb(58, 58, 219)" stroke="rgb(58, 58, 219)" stroke-width="0.127" data-glyph-w="15.063203125" data-glyph-h="74.5703125" data-glyph-ascender="65.621875" data-glyph-descender="-8.9484375"></path></g></svg></g>
        </g><g id="shape_6hxZExbxrt" class="brand_slogan"  ref="shape_6hxZExbxrt" key="shape_6hxZExbxrt" transform="translate(263.6637532497509,242.15060547373645) rotate(0,154.08478964786113,103.19) scale(1,1)" style="cursor:move;display:inline;opacity:1;" filter="">
            <g style="display:inline"><svg xmlns="http://www.w3.org/2000/svg" version="1.1" xmlns:xlink="http://www.w3.org/1999/xlink" width="181.92000000000002" height="206.38" viewBox="0 0 181.92000000000002 206.38" preserveAspectRatio="none" data-parent="shape_6hxZExbxrt"><rect fill="rgba(0,0,0,0)" width="67" height="34" x="28.73" y="86.19"></rect><g data-width="66.04533203125" transform="translate(28.73, 0)"><path d="M9.64-3.31L1.40-3.31L1.40-23.34L9.64-23.34Q13.34-23.34 15.96-20.41L15.96-20.41Q18.57-17.48 18.57-13.33L18.57-13.33Q18.57-9.17 15.96-6.24L15.96-6.24Q13.34-3.31 9.64-3.31L9.64-3.31ZM9.64-19.63L5.12-19.63L5.12-7.03L9.64-7.03Q11.80-7.03 13.33-8.87L13.33-8.87Q14.86-10.72 14.86-13.33L14.86-13.33Q14.86-15.94 13.33-17.77L13.33-17.77Q11.80-19.63 9.64-19.63L9.64-19.63Z" transform="translate(0 112.19) " fill="rgb(58, 58, 219)" stroke="rgb(58, 58, 219)" stroke-width="0.048" data-glyph-w="19.4151953125" data-glyph-h="29.936435546875" data-glyph-ascender="24.07259765625" data-glyph-descender="-5.863837890625"></path><path d="M1.40-23.34L15.71-23.34L15.71-19.63L5.12-19.63L5.12-15.18L15.71-15.18L15.71-11.46L5.12-11.46L5.12-7.03L15.71-7.03L15.71-3.31L1.40-3.31L1.40-23.34Z" transform="translate(19.4151953125 112.19) " fill="rgb(58, 58, 219)" stroke="rgb(58, 58, 219)" stroke-width="0.048" data-glyph-w="16.55341796875" data-glyph-h="29.936435546875" data-glyph-ascender="24.07259765625" data-glyph-descender="-5.863837890625"></path><path d="M10.21-8.67L5.12-16.51L5.12-3.31L1.40-3.31L1.40-23.34L5.12-23.34L11.77-13.09L18.43-23.34L22.15-23.34L22.15-3.31L18.43-3.31L18.43-16.53L13.34-8.67L10.21-8.67Z" transform="translate(35.96861328125 112.19) " fill="rgb(58, 58, 219)" stroke="rgb(58, 58, 219)" stroke-width="0.048" data-glyph-w="23.5535498046875" data-glyph-h="29.936435546875" data-glyph-ascender="24.07259765625" data-glyph-descender="-5.863837890625"></path><path d="M5.12-3.31L5.12-23.34L1.40-23.34L1.40-3.31L5.12-3.31Z" transform="translate(59.5221630859375 112.19) " fill="rgb(58, 58, 219)" stroke="rgb(58, 58, 219)" stroke-width="0.048" data-glyph-w="6.5231689453125" data-glyph-h="29.936435546875" data-glyph-ascender="24.07259765625" data-glyph-descender="-5.863837890625"></path></g></svg></g>
        </g>
  </svg>