<svg t="1680877635855" class="icon" viewBox="0 0 1024 1024" version="1.1" xmlns="http://www.w3.org/2000/svg" p-id="5075" width="200" height="200"><path d="M512 405.333333c-6.4 0-10.666667-2.133333-14.933333-6.4l-149.333334-149.333333c-8.533333-8.533333-8.533333-21.333333 0-29.866667l149.333334-149.333333c8.533333-8.533333 21.333333-8.533333 29.866666 0l149.333334 149.333333c8.533333 8.533333 8.533333 21.333333 0 29.866667l-149.333334 149.333333c-4.266667 4.266667-8.533333 6.4-14.933333 6.4z m-119.466667-170.666666l119.466667 119.466666 119.466667-119.466666L512 115.2 392.533333 234.666667zM789.333333 704c-6.4 0-10.666667-2.133333-14.933333-6.4l-149.333333-149.333333c-8.533333-8.533333-8.533333-21.333333 0-29.866667l149.333333-149.333333c8.533333-8.533333 21.333333-8.533333 29.866667 0l149.333333 149.333333c8.533333 8.533333 8.533333 21.333333 0 29.866667l-149.333333 149.333333c-4.266667 4.266667-8.533333 6.4-14.933334 6.4z m-119.466666-170.666667l119.466666 119.466667 119.466667-119.466667-119.466667-119.466666-119.466666 119.466666zM512 960c-6.4 0-10.666667-2.133333-14.933333-6.4l-149.333334-149.333333c-8.533333-8.533333-8.533333-21.333333 0-29.866667l149.333334-149.333333c8.533333-8.533333 21.333333-8.533333 29.866666 0l149.333334 149.333333c8.533333 8.533333 8.533333 21.333333 0 29.866667l-149.333334 149.333333c-4.266667 4.266667-8.533333 6.4-14.933333 6.4z m-119.466667-170.666667l119.466667 119.466667 119.466667-119.466667-119.466667-119.466666-119.466667 119.466666zM234.666667 682.666667c-6.4 0-10.666667-2.133333-14.933334-6.4l-149.333333-149.333334c-8.533333-8.533333-8.533333-21.333333 0-29.866666l149.333333-149.333334c8.533333-8.533333 21.333333-8.533333 29.866667 0l149.333333 149.333334c8.533333 8.533333 8.533333 21.333333 0 29.866666l-149.333333 149.333334c-4.266667 4.266667-8.533333 6.4-14.933333 6.4z m-119.466667-170.666667l119.466667 119.466667 119.466666-119.466667-119.466666-119.466667L115.2 512z" fill="#515151" p-id="5076"></path></svg>