<svg t="1678247218980" class="icon" viewBox="0 0 1024 1024" version="1.1" xmlns="http://www.w3.org/2000/svg" p-id="8558" width="200" height="200"><path d="M912.027826 661.993739l-352.300522 211.389218a70.077217 70.077217 0 0 1-35.216695 8.770782c-12.733217 0-25.510957-2.938435-35.261218-8.770782l-352.300521-211.389218c-19.456-11.664696-19.456-30.630957 0-42.25113l59.748173-35.84 271.84974 163.127652c15.62713 9.305043 35.439304 14.425043 55.963826 14.425043 20.48 0 40.292174-5.12 55.919304-14.425043l271.849739-163.127652 59.748174 35.84c19.456 11.664696 19.456 30.586435 0 42.25113z" fill="#2B3B94" p-id="8559"></path><path d="M912.027826 501.092174l-352.300522 211.433739a70.077217 70.077217 0 0 1-35.216695 8.770783c-12.733217 0-25.510957-2.938435-35.261218-8.770783l-352.300521-211.433739c-19.456-11.664696-19.456-30.630957 0-42.251131L196.697043 422.956522l271.84974 163.127652c15.62713 9.394087 35.439304 14.514087 55.963826 14.514087 20.48 0 40.292174-5.12 55.919304-14.514087L852.324174 422.956522l59.748174 35.884521c19.411478 11.664696 19.411478 30.630957-0.044522 42.251131z" fill="#2B3B94" p-id="8560"></path><path d="M912.027826 340.23513l-352.300522 211.43374a70.077217 70.077217 0 0 1-35.216695 8.770782c-12.733217 0-25.510957-2.938435-35.261218-8.770782L136.94887 340.23513c-19.456-11.620174-19.456-30.630957 0-42.25113l352.300521-211.433739c9.750261-5.832348 22.528-8.726261 35.261218-8.726261 12.688696 0 25.466435 2.893913 35.216695 8.726261l352.300522 211.433739c19.456 11.664696 19.456 30.630957 0 42.25113z" fill="#0745ba" p-id="8561"></path></svg>