<svg t="1678673694886" class="icon" viewBox="0 0 1024 1024" version="1.1" xmlns="http://www.w3.org/2000/svg" p-id="3317" width="200" height="200"><path d="M778.24 281.6c-112.64 33.28-133.12 122.88-125.44 179.2-79.36-94.72-76.8-202.24-76.8-358.4-256 97.28-197.12 376.32-204.8 460.8-64-53.76-76.8-179.2-76.8-179.2-69.12 35.84-102.4 128-102.4 204.8 0 184.32 148.48 332.8 332.8 332.8s332.8-148.48 332.8-332.8c0-110.08-79.36-158.72-79.36-307.2zM537.6 870.4c-163.84 0-294.4-138.24-294.4-291.84 0-35.84 0-64 25.6-92.16-2.56 15.36 35.84 156.16 161.28 148.48-5.12-104.96-33.28-363.52 97.28-453.12-12.8 140.8 23.04 330.24 176.64 355.84-7.68-56.32-7.68-151.04 30.72-166.4 5.12 87.04 69.12 138.24 69.12 222.72C803.84 742.4 660.48 870.4 537.6 870.4z" fill="" p-id="3318"></path></svg>