<svg t="1678246517503" class="icon" viewBox="0 0 1024 1024" version="1.1" xmlns="http://www.w3.org/2000/svg" p-id="6176" width="200" height="200"><path d="M469.355264 625.768878h469.309496a42.66762 42.66762 0 0 1 0 85.335241H469.355264a42.66762 42.66762 0 0 1 0-85.335241z m-413.060093-142.236842l162.821194-172.592755a21.328089 21.328089 0 0 1 36.85503 14.634456V700.257a21.328089 21.328089 0 0 1-36.85503 14.634456l-162.832636-172.775828a42.66762 42.66762 0 0 1 0.034326-58.583592z m413.060093-170.647597h469.309496a42.66762 42.66762 0 0 1 0 85.335241H469.355264a42.66762 42.66762 0 0 1 0-85.335241zM42.66762 938.66476h938.653318a42.66762 42.66762 0 1 1 0 85.33524H42.66762a42.66762 42.66762 0 0 1 0-85.33524zM42.66762 0h938.653318a42.66762 42.66762 0 1 1 0 85.33524H42.66762a42.66762 42.66762 0 0 1 0-85.33524z" fill="#8a8a8a" p-id="6177"></path></svg>