<svg t="1678247082747" class="icon" viewBox="0 0 1195 1024" version="1.1" xmlns="http://www.w3.org/2000/svg" p-id="7554" width="200" height="200"><path d="M896.366826 1024h-99.596314a99.596314 99.596314 0 0 1-99.596314-99.596314v-348.587099h-199.192628v348.587099a99.596314 99.596314 0 0 1-99.596314 99.596314H298.788942a149.394471 149.394471 0 0 1-149.394471-149.394471v-348.587099a49.798157 49.798157 0 0 1 99.596314 0v348.587099a49.798157 49.798157 0 0 0 49.798157 49.798157h99.596314v-348.587099a99.596314 99.596314 0 0 1 99.596314-99.596314h199.192628a99.596314 99.596314 0 0 1 99.596314 99.596314v348.587099h99.596314a49.798157 49.798157 0 0 0 49.798157-49.798157v-348.587099a49.798157 49.798157 0 0 1 99.596314 0v348.587099a149.394471 149.394471 0 0 1-149.394471 149.394471zM1187.188062 403.514964a49.798157 49.798157 0 0 0-14.441465-68.721457L706.137866 32.020713a199.192628 199.192628 0 0 0-216.621983 0L22.907152 334.793507A49.798157 49.798157 0 0 0 76.689162 418.454411l466.608731-302.772794a99.596314 99.596314 0 0 1 108.559982 0l466.608731 302.772794a49.798157 49.798157 0 0 0 68.721456-14.441465z" fill="#0745ba" p-id="7555"></path></svg>