<svg t="1678245731953" class="icon" viewBox="0 0 1024 1024" version="1.1" xmlns="http://www.w3.org/2000/svg" p-id="5887" width="200" height="200"><path d="M90.23 333.75m-26.41 0a26.41 26.41 0 1 0 52.82 0 26.41 26.41 0 1 0-52.82 0Z" fill="#4D73B6" opacity=".8" p-id="5888"></path><path d="M136.45 234.28m-26.41 0a26.41 26.41 0 1 0 52.82 0 26.41 26.41 0 1 0-52.82 0Z" fill="#44BDDC" opacity=".8" p-id="5889"></path><path d="M933.77 280.5m-26.41 0a26.41 26.41 0 1 0 52.82 0 26.41 26.41 0 1 0-52.82 0Z" fill="#4D73B6" opacity=".8" p-id="5890"></path><path d="M396.92 330.62h-0.04l-5.05-0.41-0.04 0.51c-15.64 1.19-28.55 13.5-29.86 29.62l-23.1 284c-1.31 16.12 9.44 30.35 24.68 34.06l-0.04 0.51 5.08 0.42 9.04 0.73 1.5 0.13c17.87 1.45 33.53-11.85 34.99-29.72l23.09-284c1.46-17.86-11.84-33.53-29.71-34.99l-1.51-0.12-9.03-0.74z" fill="#44BDDC" opacity=".8" p-id="5891"></path><path d="M216.93 780.57c-0.95-0.01-1.9-0.04-2.85-0.12-17.86-1.57-31.07-17.3-29.5-35.16 0.16-1.86 16.43-188.09 32.48-347.95C235.52 213.57 359.36 90.1 525.21 90.1c159.2 0 288.79 129.1 308.12 306.97 16.08 147.97 32.38 346.41 32.53 348.4 1.46 17.87-11.84 33.53-29.69 34.99-17.89 1.62-33.53-11.83-34.99-29.7-0.16-1.98-16.38-199.58-32.38-346.67-13.45-123.78-101.44-249.08-243.59-249.08-130.73 0-228.61 99.99-243.55 248.81-16.02 159.45-32.27 345.25-32.42 347.12-1.48 16.89-15.65 29.63-32.31 29.63z m0 0" fill="#3D6AB2" opacity=".8" p-id="5892"></path><path d="M914.65 806.12H135.77c-17.92 0-32.45-14.53-32.45-32.45s14.53-32.45 32.45-32.45h778.88c17.92 0 32.45 14.53 32.45 32.45s-14.53 32.45-32.45 32.45z m0 0" fill="#3D6AB2" opacity=".8" p-id="5893"></path><path d="M533.32 933.9c-80.53 0-146.04-65.92-146.04-146.94 0-17.92 14.53-32.45 32.45-32.45s32.45 14.53 32.45 32.45c0 45.25 36.39 82.04 81.13 82.04 44.74 0 81.14-36.79 81.14-82.04 0-17.92 14.53-32.45 32.45-32.45s32.45 14.53 32.45 32.45c0.01 81.02-65.5 146.94-146.03 146.94z m0 0" fill="#3D6AB2" opacity=".8" p-id="5894"></path></svg>