<svg t="1678103353039" class="icon" viewBox="0 0 1024 1024" version="1.1" xmlns="http://www.w3.org/2000/svg" p-id="6312" width="200" height="200"><path d="M512.000146 1023.999707a510.244134 510.244134 0 0 1-362.027575-149.971985A510.244134 510.244134 0 0 1 0.000585 512.000146 510.244134 510.244134 0 0 1 149.972571 149.972571 510.273391 510.273391 0 0 1 512.000146 0.000585c60.152634 0 119.076469 10.35702 175.162364 30.749231a39.99448 39.99448 0 0 1-27.384662 75.190793 430.664774 430.664774 0 0 0-147.777702-25.951064C273.788693 79.989545 79.989545 273.788693 79.989545 512.000146c0 238.182196 193.799148 431.981344 432.010601 431.981344 238.182196 0 431.981344-193.799148 431.981344-431.981344a430.664774 430.664774 0 0 0-25.921806-147.806959 39.99448 39.99448 0 0 1 75.190793-27.355405 510.478191 510.478191 0 0 1 30.719973 175.162364 510.244134 510.244134 0 0 1-149.971985 362.027576A510.273391 510.273391 0 0 1 512.000146 1023.999707z" fill="#B92439" p-id="6313"></path><path d="M207.872407 433.357014h606.587823a31.743973 31.743973 0 0 0 19.719297-56.64178 31.831744 31.831744 0 0 0-6.758394-6.407309l-226.596377-159.012435a31.743973 31.743973 0 1 0-36.483626 51.989898l151.844441 106.554423H207.872407a31.77323 31.77323 0 1 0 0 63.517203z m606.587823 126.800348H207.872407a31.743973 31.743973 0 0 0-19.719297 56.64178c1.872456 2.399084 4.125254 4.56411 6.758394 6.407309l226.596377 159.041692a31.743973 31.743973 0 1 0 36.483626-52.019155l-151.844441-106.554423h508.313164a31.743973 31.743973 0 1 0 0-63.487946z" fill="#B92439" p-id="6314"></path></svg>