<svg t="1680877538699" class="icon" viewBox="0 0 1024 1024" version="1.1" xmlns="http://www.w3.org/2000/svg" p-id="2657" width="200" height="200"><path d="M614.4 938.666667h-34.133333v-153.6h-136.533334v153.6h-34.133333v-153.6H170.666667c-60.1088 0-95.6416-30.139733-101.5296-85.333334H68.266667V170.666667c0-66.030933 36.369067-102.4 102.4-102.4h682.666666c66.030933 0 102.4 36.369067 102.4 102.4v529.066666h-0.8704c-5.905067 55.1936-41.437867 85.333333-101.5296 85.333334H614.4v153.6z m-17.066667-187.733334h256c41.079467 0 62.3616-15.957333 67.208534-51.2H103.4752c4.829867 35.242667 26.112 51.2 67.191467 51.2h426.666666zM102.4 665.6h819.2V170.666667c0-47.223467-21.0432-68.266667-68.266667-68.266667H170.666667c-47.223467 0-68.266667 21.0432-68.266667 68.266667v494.933333z" p-id="2658" fill="#515151"></path><path d="M768 972.8H256a34.133333 34.133333 0 0 1 0-68.266667h512a34.133333 34.133333 0 0 1 0 68.266667z" p-id="2659" fill="#515151"></path></svg>