<svg t="1678102891298" class="icon" viewBox="0 0 1024 1024" version="1.1" xmlns="http://www.w3.org/2000/svg" p-id="2782" width="200" height="200"><path d="M948.712714 504.692147a35.363315 35.363315 0 1 0-70.2422 11.626295 364.290584 364.290584 0 0 1 4.84429 59.584763 371.072589 371.072589 0 0 1-633.63309 262.076071A371.072589 371.072589 0 0 1 511.757786 204.346187h12.595153L443.453301 285.245825a35.363315 35.363315 0 1 0 48.442897 48.442896l134.186824-134.186824a35.363315 35.363315 0 0 0 0-48.442896L493.833914 17.356605a35.363315 35.363315 0 1 0-48.442897 48.442897L509.335641 133.135129a442.283647 442.283647 0 0 0-169.550139 850.172838 442.768076 442.768076 0 0 0 581.314761-234.94805 444.221363 444.221363 0 0 0 29.065738-242.214483z" fill="#8a8a8a" p-id="2783"></path></svg>