<svg t="1679448890522" class="icon" viewBox="0 0 1024 1024" version="1.1" xmlns="http://www.w3.org/2000/svg" p-id="5246" data-spm-anchor-id="a313x.7781069.0.i0" width="200" height="200"><path d="M993.904 641.088l-103-59.328c4.432-23.04 6.616-46.4 6.616-69.76 0-23.36-2.184-46.72-6.616-69.824l103-59.328a31.856 31.856 0 0 0 11.76-43.648L909.28 172.8a31.896 31.896 0 0 0-19.536-14.912c-8.16-2.048-17.024-1.088-24.352 3.264l-102.944 59.2a380.344 380.344 0 0 0-121.96-70.336V32c0-17.664-14.392-32-32.128-32H415.6a32.08 32.08 0 0 0-32.128 32v118.016a381.36 381.36 0 0 0-121.96 70.272l-102.936-59.136c-7.264-4.352-16.136-5.312-24.36-3.264a32.072 32.072 0 0 0-19.528 14.912L18.288 339.2a31.856 31.856 0 0 0 11.76 43.648l103.008 59.328A370.296 370.296 0 0 0 126.432 512c0 23.36 2.192 46.72 6.624 69.824L30.048 641.152a31.92 31.92 0 0 0-11.76 43.712l96.392 166.4a31.896 31.896 0 0 0 19.528 14.912c8.224 2.112 17.096 1.024 24.36-3.264l102.936-59.2a381.36 381.36 0 0 0 121.96 70.272V992c0 17.664 14.4 32 32.128 32h192.768a32.08 32.08 0 0 0 32.128-32v-118.016a380.344 380.344 0 0 0 121.96-70.336l102.944 59.2a32.688 32.688 0 0 0 24.352 3.264 32.072 32.072 0 0 0 19.536-14.912l96.384-166.4a31.832 31.832 0 0 0-11.76-43.712z m-124.208 150.336l-95.552-54.912a32.368 32.368 0 0 0-38.616 4.864 316.032 316.032 0 0 1-135.904 78.4 31.968 31.968 0 0 0-23.392 30.784V960H447.72v-109.44a31.968 31.968 0 0 0-23.392-30.784c-51.28-14.336-98.24-41.408-135.904-78.4a32.248 32.248 0 0 0-38.616-4.864l-95.552 54.912L90 680.512l95.552-55.04a31.92 31.92 0 0 0 15.04-35.648A313.272 313.272 0 0 1 190.696 512c0-26.112 3.336-52.288 9.896-77.824a31.832 31.832 0 0 0-15.04-35.584L90 343.552l64.256-110.912 95.552 54.848a32.368 32.368 0 0 0 38.616-4.864 316.032 316.032 0 0 1 135.904-78.4 31.968 31.968 0 0 0 23.392-30.784V64H576.24v109.44a31.968 31.968 0 0 0 23.392 30.784c51.28 14.336 98.248 41.408 135.904 78.4a32.248 32.248 0 0 0 38.616 4.864l95.552-54.912 64.256 110.912-95.552 55.104a31.92 31.92 0 0 0-15.04 35.648 312.384 312.384 0 0 1 9.904 77.76c0 26.112-3.344 52.288-9.896 77.824a31.952 31.952 0 0 0 15.04 35.648l95.544 55.04-64.256 110.912zM511.976 480c-19.664 0-32.128-10.496-32.128-16s12.464-16 32.128-16c9.768 0 18.504 2.368 25.192 6.784 14.776 9.664 34.696 5.824 44.592-8.832a31.952 31.952 0 0 0-8.864-44.416 103.928 103.928 0 0 0-28.792-13.12V352c0-17.664-14.392-32-32.128-32a32.08 32.08 0 0 0-32.128 32v36.928C442.52 399.936 415.6 429.312 415.6 464c0 44.096 43.248 80 96.384 80 19.664 0 32.128 10.496 32.128 16s-12.464 16-32.128 16c-9.76 0-18.504-2.368-25.184-6.784-14.848-9.792-34.768-5.824-44.6 8.768a31.952 31.952 0 0 0 8.872 44.416 102.264 102.264 0 0 0 28.784 13.184V672c0 17.664 14.4 32 32.128 32a32.08 32.08 0 0 0 32.128-32v-36.928c37.336-11.008 64.256-40.384 64.256-75.072 0-44.096-43.24-80-96.384-80z" fill="#20A0FF" p-id="5247"></path></svg>