<svg t="1678099890793" class="icon" viewBox="0 0 1024 1024" version="1.1" xmlns="http://www.w3.org/2000/svg" p-id="6092" width="200" height="200"><path d="M512.8 806.6c-162.2 0-293.8-131.8-293.8-293.8s131.8-293.8 293.8-293.8 293.8 131.8 293.8 293.8-131.6 293.8-293.8 293.8z m0-526.8c-128.4 0-233 104.6-233 233s104.6 233 233 233 233-104.6 233-233-104.6-233-233-233zM512.8 957c-22.2 0-40.6-16.6-40.6-39v-3.2c0-22.2 18.2-40.6 40.6-40.6s40.6 18.2 40.6 40.6-18.2 42.2-40.6 42.2z m289.4-114.2c-10.6 0-20.6-4-28.8-11.8l-5.2-5.2c-15.8-15.8-15.8-41.4 0-57.2 15.8-15.8 41.4-15.8 57.2 0l5.2 5.2c15.8 15.8 15.8 41.4 0 57.2-7.8 7.6-17.8 11.8-28.4 11.8z m-578.8 0c-10.6 0-20.6-4-28.8-11.8-15.8-15.8-15.8-41.4 0-57.2l5.2-5.2c15.8-15.8 41.4-15.8 57.2 0s15.8 41.4 0 57.2l-5.2 5.2c-7.6 7.6-18.2 11.8-28.4 11.8zM918 553.4h-3.2c-22.2 0-40.6-18.2-40.6-40.6s18.2-40.6 40.6-40.6 42.2 18.2 42.2 40.6-16.6 40.6-39 40.6z m-807.2 0h-3.2c-22.2 0-40.6-18.2-40.6-40.6s18.2-40.6 40.6-40.6 42.2 18.2 42.2 40.6-16.8 40.6-39 40.6z m686.2-284.2c-10.6 0-20.6-4-28.8-11.8-15.8-15.8-15.8-41.4 0-57.2l5.2-5.2c15.8-15.8 41.4-15.8 57.2 0s15.8 41.4 0 57.2l-5.2 5.2c-7.8 7.8-18 11.8-28.4 11.8z m-568.2 0c-10.6 0-20.6-4-28.8-11.8l-5.2-5.6c-15.8-15.8-15.8-41.4 0-57.2s41.4-15.8 57.2 0l5.2 5.2c15.8 15.8 15.8 41.4 0 57.2-7.8 8.2-18.4 12.2-28.4 12.2z m284-119.6c-22.2 0-40.6-16.6-40.6-39v-3.2c0-22.2 18.2-40.6 40.6-40.6s40.6 18.2 40.6 40.6-18.2 42.2-40.6 42.2z" p-id="6093" fill="#8a8a8a"></path></svg>