<svg t="1678271104999" class="icon" viewBox="0 0 1024 1024" version="1.1" xmlns="http://www.w3.org/2000/svg" p-id="3070" width="200" height="200"><path d="M1010.346667 395.264c-68.266667 27.306667-147.456 0.682667-185.002667-64.170667-37.546667-65.536-20.48-146.773333 36.864-192.512a514.389333 514.389333 0 0 0-201.386667-116.736c-10.922667 72.362667-73.045333 128.341333-148.821333 128.341334s-137.898667-55.978667-148.821333-128.341334c-76.458667 23.210667-144.725333 63.488-201.386667 116.736 57.344 45.738667 74.410667 126.976 36.864 192.512-37.546667 65.536-117.418667 91.477333-185.002667 64.170667a505.890133 505.890133 0 0 0 0 233.472c68.266667-27.306667 147.456-0.682667 185.002667 64.170667 37.546667 65.536 20.48 146.773333-36.864 192.512 56.661333 53.248 125.610667 93.525333 201.386667 116.736 10.922667-72.362667 73.045333-128.341333 148.821333-128.341334s137.898667 55.978667 148.821333 128.341334c76.458667-23.210667 144.725333-63.488 201.386667-116.736-57.344-45.738667-74.410667-126.976-36.864-192.512 37.546667-65.536 117.418667-91.477333 185.002667-64.170667a505.890133 505.890133 0 0 0 0-233.472z m-492.202667 282.624c-92.16 0-166.570667-74.410667-166.570667-166.570667s74.410667-166.570667 166.570667-166.570666c92.16 0 166.570667 74.410667 166.570667 166.570666s-75.093333 166.570667-166.570667 166.570667z" fill="#0745ba" p-id="3071"></path></svg>